<?xml version="1.0" encoding="UTF-8"?>
<svg version="1.1" xmlns="http://www.w3.org/2000/svg" width="1563" height="1563">
<path d="M0 0 C3.49828873 0.01039179 6.99655085 0.0031734 10.4948455 -0.00173247 C16.61533151 -0.00792812 22.73572969 -0.00306633 28.85620545 0.00918215 C37.95700278 0.02734412 47.05774513 0.0281843 56.15855728 0.02555619 C71.47016077 0.02162115 86.78172533 0.03161337 102.0933175 0.04960841 C117.24851406 0.06737389 132.4036944 0.07890916 147.5589013 0.08216685 C148.5020411 0.08237307 149.4451809 0.08257929 150.4169007 0.08279176 C155.20684585 0.08380679 159.99679101 0.08471093 164.78673619 0.08557238 C198.69297363 0.09186964 232.59918991 0.11207062 266.50541543 0.14048022 C299.4399846 0.16804379 332.37454797 0.1892896 365.30912636 0.20200366 C366.83254243 0.20259552 366.83254243 0.20259552 368.38673458 0.20319935 C378.5861352 0.20715499 388.78553588 0.21098242 398.98493659 0.21471593 C419.76134529 0.22232408 440.53775361 0.23078784 461.31416176 0.23976916 C462.26937766 0.24018103 463.22459356 0.2405929 464.20875539 0.24101725 C493.48068944 0.25368374 522.75261991 0.26997585 552.02454995 0.28984851 C553.27087511 0.29069252 553.27087511 0.29069252 554.54237855 0.29155358 C588.19314509 0.31439685 621.8439088 0.34108037 655.49467324 0.36679858 C655.49467324 64.05679858 655.49467324 127.74679858 655.49467324 193.36679858 C658.46467324 194.02679858 661.43467324 194.68679858 664.49467324 195.36679858 C666.18689841 195.91931266 667.86641511 196.51537132 669.51811074 197.17929858 C670.38428017 197.52726489 671.25044961 197.8752312 672.1428666 198.23374194 C673.49263589 198.79460498 673.49263589 198.79460498 674.86967324 199.36679858 C676.30162026 199.95956591 676.30162026 199.95956591 677.7624955 200.56430834 C724.72675238 220.38726326 764.58624536 256.45592973 784.52543496 303.93955249 C803.75682567 352.10038031 803.94471499 402.69419042 783.68217324 450.52304858 C775.32443828 469.44907883 763.71623706 486.39804227 749.49467324 501.36679858 C748.32133601 502.73611076 747.15413358 504.11071645 745.99467324 505.49179858 C724.12151832 530.43929094 690.42169537 549.90636036 658.49467324 558.36679858 C657.50467324 558.36679858 656.51467324 558.36679858 655.49467324 558.36679858 C655.49467324 622.38679858 655.49467324 686.40679858 655.49467324 752.36679858 C595.43467324 752.36679858 535.37467324 752.36679858 473.49467324 752.36679858 C469.86467324 745.10679858 466.23467324 737.84679858 462.49467324 730.36679858 C453.79212394 716.65369059 444.57313773 704.22465253 433.49467324 692.36679858 C432.73541543 691.55340014 431.97615761 690.7400017 431.19389199 689.90195483 C424.50534098 682.9725722 417.1831318 677.1258657 409.49467324 671.36679858 C408.63567422 670.71662768 408.63567422 670.71662768 407.75932168 670.05332202 C398.78886016 663.29601834 389.44916274 657.55895422 379.49467324 652.36679858 C378.79310097 651.99699877 378.09152871 651.62719897 377.36869668 651.24619311 C331.98649678 627.63310716 278.14288623 620.76542176 228.49467324 633.36679858 C227.2385624 633.68390795 227.2385624 633.68390795 225.95707558 634.00742358 C200.48955423 640.57107021 174.8265911 650.76452808 153.49467324 666.36679858 C152.32096908 667.19472128 151.14643921 668.02147422 149.97123574 668.84726733 C127.91657578 684.50053568 109.20124778 703.10469728 94.86967324 726.11679858 C94.45056679 726.78227709 94.03146035 727.44775561 93.59965371 728.13340014 C88.85512459 735.9575832 85.4522372 743.95697516 81.49467324 752.36679858 C22.42467324 752.36679858 -36.64532676 752.36679858 -97.50532676 752.36679858 C-97.58584989 673.38723814 -97.58584989 673.38723814 -97.60792686 648.94797534 C-97.60871619 648.07636697 -97.60950553 647.20475861 -97.61031878 646.30673788 C-97.6368223 616.96148582 -97.65782369 587.6162325 -97.67469932 558.27097338 C-97.67525155 557.31315103 -97.67580378 556.35532868 -97.67637274 555.3684814 C-97.68834485 534.55156065 -97.69942551 513.7346395 -97.70958808 492.91771778 C-97.71457735 482.7088501 -97.71976358 472.49998252 -97.72505332 462.29111499 C-97.72557636 461.27521926 -97.7260994 460.25932353 -97.72663828 459.21264308 C-97.74367843 426.29473262 -97.77371977 393.37684965 -97.81051564 360.45895585 C-97.84826485 326.62669041 -97.87287291 292.79444019 -97.88098672 258.96215405 C-97.88213931 254.18169637 -97.88344186 249.40123874 -97.88483573 244.62078112 C-97.88510543 243.67993441 -97.88537512 242.7390877 -97.88565298 241.76973049 C-97.89037669 226.63518492 -97.90892038 211.50068644 -97.9326549 196.36616006 C-97.95623031 181.14449464 -97.96519206 165.92287583 -97.95933227 150.7011928 C-97.95629396 141.66182507 -97.96436499 132.62262814 -97.98851693 123.5832913 C-98.00356425 117.53749097 -98.003948 111.49180192 -97.99265402 105.44599377 C-97.98664027 102.0059319 -97.98676846 98.56619202 -98.00485949 95.12616527 C-98.07757278 78.36790767 -97.99245098 62.34066646 -89.88032676 47.17929858 C-89.54331748 46.52840258 -89.20630821 45.87750659 -88.85908653 45.20688647 C-85.16463558 38.32828637 -80.55881665 32.29331662 -75.50532676 26.36679858 C-74.68161582 25.37293139 -74.68161582 25.37293139 -73.84126426 24.35898608 C-65.16355423 14.79125451 -51.76209397 7.10439127 -39.50532676 3.36679858 C-38.68841436 3.11401241 -37.87150196 2.86122624 -37.02983464 2.60077989 C-24.84864159 -0.55630961 -12.49584884 -0.04915729 0 0 Z " fill="#DA1A7D" transform="translate(97.5053267609328,-0.366798578761518)"/>
<path d="M0 0 C1.96755809 1.82381661 3.92170869 3.66080916 5.875 5.5 C6.58527344 6.15613281 7.29554688 6.81226563 8.02734375 7.48828125 C30.83835086 29.27302628 48.77658047 61.11609088 56.875 91.5 C56.875 92.49 56.875 93.48 56.875 94.5 C120.895 94.5 184.915 94.5 250.875 94.5 C250.875 151.26 250.875 208.02 250.875 266.5 C242.955 270.46 242.955 270.46 234.875 274.5 C232.08336327 276.0864263 229.37877942 277.64740852 226.6875 279.375 C226.03297852 279.79080322 225.37845703 280.20660645 224.70410156 280.63500977 C213.49312026 287.86829574 203.51398338 296.30546542 193.875 305.5 C193.14539063 306.18835938 192.41578125 306.87671875 191.6640625 307.5859375 C150.83619549 347.12280477 126.75624503 408.43096256 125.64257812 464.81591797 C125.21520567 525.51467861 148.46381295 581.54134364 189.875 625.5 C190.64199219 626.33273437 191.40898438 627.16546875 192.19921875 628.0234375 C202.07888231 638.38953611 213.78157334 646.81607935 225.9375 654.3125 C226.59556641 654.71976318 227.25363281 655.12702637 227.93164062 655.54663086 C235.37511038 660.00648014 243.0590462 663.5920231 250.875 667.5 C250.875 726.57 250.875 785.64 250.875 846.5 C171.89543957 846.58052313 171.89543957 846.58052313 147.45617676 846.6026001 C146.14876422 846.6037841 146.14876422 846.6037841 144.8149393 846.60499202 C115.46968724 846.63149554 86.12443393 846.65249693 56.7791748 846.66937256 C55.34244127 846.6702009 55.34244127 846.6702009 53.87668283 846.67104598 C33.05976207 846.68301809 12.24284092 846.69409875 -8.5740808 846.70426132 C-18.78294848 846.70925059 -28.99181606 846.71443681 -39.20068359 846.71972656 C-40.21657932 846.7202496 -41.23247505 846.72077263 -42.2791555 846.72131152 C-75.19706596 846.73835167 -108.11494892 846.768393 -141.03284273 846.80518888 C-174.86510817 846.84293809 -208.69735839 846.86754615 -242.52964452 846.87565996 C-247.31010221 846.87681255 -252.09055984 846.8781151 -256.87101746 846.87950897 C-257.81186417 846.87977866 -258.75271087 846.88004836 -259.72206809 846.88032622 C-274.85661366 846.88504993 -289.99111214 846.90359362 -305.12563851 846.92732814 C-320.34730393 846.95090355 -335.56892275 846.9598653 -350.79060578 846.95400551 C-359.82997351 846.9509672 -368.86917044 846.95903823 -377.90850727 846.98319017 C-383.95430761 846.99823749 -389.99999666 846.99862124 -396.04580481 846.98732725 C-399.48586668 846.98131351 -402.92560656 846.9814417 -406.36563331 846.99953273 C-423.48462804 847.07381124 -439.16341214 846.61595053 -454.8125 838.875 C-455.86256226 838.3651355 -455.86256226 838.3651355 -456.93383789 837.8449707 C-477.43533363 827.48801561 -491.76601987 809.5353077 -499.15234375 788.01171875 C-501.51897286 779.46714216 -502.41482958 771.51202481 -502.37109566 762.6497097 C-502.37340335 761.49007715 -502.37571103 760.3304446 -502.37808865 759.13567168 C-502.38245622 755.92994976 -502.37790825 752.72438646 -502.36953239 749.51867722 C-502.36263328 746.02629515 -502.36741141 742.5339254 -502.37068737 739.04154074 C-502.37482662 732.92523435 -502.37156137 726.80896695 -502.36341095 720.6926651 C-502.35132538 711.59799908 -502.35074079 702.50335757 -502.35249493 693.40868499 C-502.35512101 678.10893985 -502.34844643 662.809212 -502.33646011 647.50947189 C-502.32462363 632.3621347 -502.31692773 617.21480471 -502.31475449 602.06746292 C-502.31461701 601.12543451 -502.31447953 600.18340609 -502.31433788 599.21283136 C-502.31366121 594.42869042 -502.31305844 589.64454946 -502.31248413 584.8604085 C-502.30828398 550.979688 -502.29481115 517.09897692 -502.27587891 483.21826172 C-502.25750842 450.30485077 -502.24334198 417.39144239 -502.23486328 384.47802734 C-502.23460023 383.46338459 -502.23433718 382.44874183 -502.23406615 381.40335232 C-502.2314291 371.21383659 -502.22887747 361.02432084 -502.22638843 350.83480507 C-502.22131609 330.07782767 -502.21567359 309.32085044 -502.20968628 288.56387329 C-502.2094117 287.60951372 -502.20913712 286.65515415 -502.20885422 285.6718746 C-502.20040851 256.42133446 -502.18954632 227.17079592 -502.17630005 197.92025757 C-502.17592493 197.08984785 -502.17554982 196.25943813 -502.17516333 195.40386447 C-502.15993314 161.76924225 -502.14214504 128.13462129 -502.125 94.5 C-406.59 94.005 -406.59 94.005 -309.125 93.5 C-306.815 86.57 -304.505 79.64 -302.125 72.5 C-300.46971344 68.5205263 -298.84039892 64.71588779 -296.9375 60.875 C-296.47682129 59.93043945 -296.01614258 58.98587891 -295.54150391 58.01269531 C-288.6282357 44.1489533 -280.4299307 31.09304703 -270.125 19.5 C-269.444375 18.71109375 -268.76375 17.9221875 -268.0625 17.109375 C-237.09705134 -18.18212898 -196.18332821 -42.59194711 -149.125 -48.5 C-148.27292969 -48.61085938 -147.42085938 -48.72171875 -146.54296875 -48.8359375 C-92.51177366 -54.55597818 -40.01412844 -36.48584096 0 0 Z " fill="#48C5B7" transform="translate(502.125,716.5)"/>
<path d="M0 0 C58.41 0 116.82 0 177 0 C180.96 7.92 180.96 7.92 185 16 C186.77184291 19.15556784 188.53414814 22.24449708 190.4375 25.3125 C190.90140137 26.06466797 191.36530273 26.81683594 191.84326172 27.59179688 C195.76759524 33.84171114 200.086156 39.48301269 205 45 C205.69351562 45.80179688 206.38703125 46.60359375 207.1015625 47.4296875 C217.43224111 59.18787806 228.40446241 69.70699836 241 79 C241.87398437 79.64582031 242.74796875 80.29164063 243.6484375 80.95703125 C246.06757752 82.69113971 248.51635445 84.35971072 251 86 C252.33417969 86.88171875 252.33417969 86.88171875 253.6953125 87.78125 C304.86835195 120.38235085 364.17286217 132.64247295 423.76025391 120.05053711 C461.81763351 111.5448844 496.96207229 94.61629254 525.7265625 68.0859375 C527.8389424 66.1477745 529.99998072 64.28976729 532.1875 62.4375 C551.2069433 45.81743262 563.42490495 22.32520065 574 0 C632.74 0 691.48 0 752 0 C752.06039235 79.15640161 752.06039235 79.15640161 752.07695007 103.64823914 C752.07783807 104.95846648 752.07783807 104.95846648 752.07874402 106.29516306 C752.09861908 135.69972894 752.1143712 165.10429552 752.12702942 194.50886536 C752.12744359 195.46851162 752.12785776 196.42815788 752.12828448 197.41688433 C752.13726327 218.27274232 752.14557381 239.12860053 752.15319599 259.98445905 C752.15693799 270.21221429 752.16082765 280.43996946 752.16479492 290.66772461 C752.1651872 291.68550746 752.16557948 292.70329031 752.16598364 293.75191506 C752.17876695 326.73929021 752.20130034 359.72664994 752.22889166 392.71401574 C752.25719457 426.613718 752.27565753 460.51341172 752.28174497 494.4131256 C752.28260943 499.20157281 752.28358634 503.99002 752.28463173 508.77846718 C752.284834 509.72089931 752.28503627 510.66333144 752.28524467 511.63432211 C752.28878937 526.80292445 752.30270237 541.97150039 752.3204961 557.14009196 C752.3381648 572.39082664 752.34490218 587.64153516 752.34050413 602.89227971 C752.33822298 611.95224476 752.34430047 621.01211406 752.36239263 630.07206182 C752.37365887 636.12776722 752.37397932 642.18341006 752.36549544 648.2391198 C752.36097521 651.687256 752.361123 655.13521138 752.37464955 658.58332803 C752.38670501 662.305487 752.38018907 666.02717947 752.36914349 669.74933147 C752.37702453 670.80934389 752.38490557 671.8693563 752.39302543 672.9614903 C752.24902829 694.46544609 742.63805794 714.06328279 727.76953125 729.28515625 C714.49291008 742.29961565 695.09640305 753.12770465 676.01241559 753.1241985 C675.02502201 753.12644579 674.03762843 753.12869308 673.02031383 753.13100848 C671.40117756 753.12706796 671.40117756 753.12706796 669.74933147 753.12304783 C668.59377977 753.12420167 667.43822807 753.12535552 666.24765965 753.12654433 C663.03011544 753.12874044 659.8126101 753.12643613 656.59506898 753.12226619 C653.09851875 753.11883457 649.60197175 753.1212023 646.10542089 753.12284368 C639.97404934 753.12491888 633.84268749 753.12327116 627.71131706 753.11920547 C618.59415759 753.1131767 609.47700424 753.11286909 600.35984313 753.11374746 C585.02420232 753.11506222 569.68856581 753.11171671 554.35292625 753.10573006 C539.165173 753.09981631 523.97742153 753.09596477 508.78966713 753.09487724 C507.84590867 753.0948085 506.90215021 753.09473976 505.92979301 753.09466894 C501.13706722 753.09433062 496.34434143 753.09402923 491.55161563 753.09374207 C457.59048016 753.09164075 423.62934704 753.08490087 389.66821289 753.07543945 C356.67211927 753.06625749 323.67602629 753.05917266 290.67993164 753.05493164 C289.6631372 753.05480011 288.64634275 753.05466859 287.59873635 753.05453308 C277.38781911 753.05321457 267.17690186 753.05193876 256.96598461 753.05069422 C236.16452295 753.04815789 215.36306133 753.04533664 194.56159973 753.04234314 C193.60514822 753.04220585 192.64869672 753.04206856 191.66326183 753.04192711 C162.34249878 753.03770339 133.02173612 753.03227181 103.70097351 753.02565002 C102.86840205 753.02546247 102.03583059 753.02527491 101.17802969 753.02508167 C67.45201961 753.01746573 33.72600985 753.00857225 0 753 C0 688.98 0 624.96 0 559 C-2.97 558.34 -5.94 557.68 -9 557 C-10.58009878 556.49359797 -12.14942988 555.94868872 -13.69140625 555.3359375 C-14.87814941 554.86631592 -14.87814941 554.86631592 -16.08886719 554.38720703 C-16.90516602 554.05317871 -17.72146484 553.71915039 -18.5625 553.375 C-19.86622559 552.84495361 -19.86622559 552.84495361 -21.19628906 552.30419922 C-44.59899533 542.64233495 -65.63371095 529.49796879 -84 512 C-84.57008789 511.45714355 -85.14017578 510.91428711 -85.72753906 510.35498047 C-111.37532631 485.76972531 -129.41034937 455.37536152 -138.25 420.9375 C-138.49661377 419.98061279 -138.74322754 419.02372559 -138.99731445 418.0378418 C-142.44188981 403.95571239 -143.38133001 390.1711746 -143.3125 375.75 C-143.31034485 374.9350708 -143.3081897 374.1201416 -143.30596924 373.28051758 C-143.25513551 361.29551112 -142.91283541 349.68274687 -140 338 C-139.80132324 337.17757813 -139.60264648 336.35515625 -139.39794922 335.5078125 C-136.16939276 322.46783017 -131.60462167 310.19334649 -126 298 C-125.71012207 297.35981934 -125.42024414 296.71963867 -125.12158203 296.06005859 C-120.69298323 286.37298345 -115.1692492 277.64205703 -109 269 C-108.60925293 268.4440918 -108.21850586 267.88818359 -107.81591797 267.31542969 C-82.62641727 231.90425582 -42.57836602 203.46185911 0 194 C0 129.98 0 65.96 0 0 Z " fill="#342C81" transform="translate(809,810)"/>
<path d="M0 0 C78.86311161 -0.08052313 78.86311161 -0.08052313 103.26635742 -0.1026001 C104.13668125 -0.10338943 105.00700508 -0.10417877 105.90370236 -0.10499202 C135.20573695 -0.13149557 164.50777279 -0.15249694 193.80981445 -0.16937256 C194.76622707 -0.16992479 195.72263968 -0.17047702 196.7080345 -0.17104598 C217.49432206 -0.18301809 238.28061 -0.19409875 259.06689852 -0.20426132 C269.26074494 -0.20925059 279.45459124 -0.21443681 289.6484375 -0.21972656 C290.66283839 -0.2202496 291.67723927 -0.22077263 292.72237958 -0.22131152 C325.59178825 -0.23835164 358.46116939 -0.26839295 391.33056138 -0.30518888 C425.11300856 -0.34293819 458.89544051 -0.36754617 492.67790842 -0.37565996 C497.45133881 -0.37681255 502.22476914 -0.3781151 506.99819946 -0.37950897 C508.4073948 -0.37991351 508.4073948 -0.37991351 509.84505873 -0.38032622 C524.95728834 -0.38504991 540.06947078 -0.40359355 555.18168117 -0.42732814 C570.38094246 -0.45090368 585.58015707 -0.45986526 600.77943599 -0.45400551 C609.80547311 -0.45096723 618.83133918 -0.459038 627.85734535 -0.48319017 C633.89425986 -0.49823769 639.93106293 -0.4986211 645.96798526 -0.48732725 C649.4029721 -0.48131361 652.83763647 -0.48144127 656.27258813 -0.49953273 C684.69778729 -0.62305286 708.03219422 4.41788964 729 25 C729.68835937 25.66386719 730.37671875 26.32773437 731.0859375 27.01171875 C745.56245929 42.03182535 752.34720488 62.34609289 752.24609566 82.86590767 C752.24840335 84.02722859 752.25071103 85.18854951 752.25308865 86.38506198 C752.2574563 89.595519 752.25290814 92.80581763 752.24453239 96.01626199 C752.23763338 99.51377708 752.24241139 103.01127986 752.24568737 106.50879753 C752.24982665 112.63411627 752.24656131 118.7593961 752.23841095 124.88471031 C752.22632546 133.99277757 752.22574078 143.10082037 752.22749493 152.20889419 C752.23012102 167.53117823 752.22344639 182.85344501 752.21146011 198.17572403 C752.19962365 213.34538992 752.19192773 228.51504861 752.18975449 243.68471909 C752.18961701 244.62813385 752.18947953 245.57154861 752.18933788 246.54355169 C752.18866121 251.33473269 752.18805844 256.12591369 752.18748413 260.91709469 C752.18328398 294.84772948 752.16981112 328.77835488 752.15087891 362.70898438 C752.13250844 395.67089793 752.11834199 428.63280891 752.10986328 461.59472656 C752.10960023 462.61086338 752.10933718 463.62700019 752.10906615 464.67392903 C752.1064291 474.87844816 752.10387747 485.08296731 752.10138843 495.28748648 C752.09631609 516.07502978 752.09067358 536.86257291 752.08468628 557.65011597 C752.0844117 558.60588102 752.08413712 559.56164608 752.08385422 560.54637372 C752.07540851 589.84000914 752.06454632 619.13364297 752.05130005 648.42727661 C752.05092493 649.25891028 752.05054982 650.09054395 752.05016333 650.94737864 C752.03493314 684.63158649 752.01714504 718.31579309 752 752 C688.64 752.33 625.28 752.66 560 753 C557.69 759.6 555.38 766.2 553 773 C551.33767148 776.93555669 549.6868451 780.7418027 547.8125 784.5625 C547.35182129 785.51157227 546.89114258 786.46064453 546.41650391 787.43847656 C539.52408832 801.32531457 531.32403355 814.40646504 521 826 C520.21496094 826.89332031 519.42992187 827.78664063 518.62109375 828.70703125 C514.86327974 832.93534586 511.00942 837.00925742 507 841 C506.2678125 841.76699219 505.535625 842.53398438 504.78125 843.32421875 C474.50276581 874.69148405 428.77834536 894.02414423 385.31640625 895.23828125 C333.39096331 895.98790084 285.74312253 879.23841332 248 843 C247.12085938 842.17242188 246.24171875 841.34484375 245.3359375 840.4921875 C238.13129195 833.53107926 231.95032856 826.04195921 226 818 C225.60039063 817.46117187 225.20078125 816.92234375 224.7890625 816.3671875 C213.08607158 800.42284416 194 772.51862456 194 752 C129.98 752 65.96 752 0 752 C0 698.54 0 645.08 0 590 C7.92 586.04 7.92 586.04 16 582 C27.70871263 574.85570077 37.97450562 567.04919727 47.96875 557.6875 C50 556 50 556 52 556 C52.24105469 555.42636719 52.48210938 554.85273437 52.73046875 554.26171875 C54.24632465 551.56116316 56.03787715 549.91587465 58.3125 547.8125 C76.63604648 529.77813431 90.41373254 506.45714143 101.71728516 483.57910156 C102.82814082 481.34555013 103.97253573 479.13568361 105.13671875 476.9296875 C115.82264093 456.16230472 122.89217529 431.92104546 127 409 C127.15936035 408.14567383 127.3187207 407.29134766 127.48291016 406.41113281 C136.90079573 354.3266369 124.00366509 299.7549855 94.2409668 256.24072266 C88.5573185 248.16907314 82.45444639 240.46632745 76 233 C75.53577637 232.46133301 75.07155273 231.92266602 74.59326172 231.36767578 C69.42845704 225.42038166 64.07856537 219.99836797 58 215 C56.87074497 214.03556448 55.74187555 213.07067737 54.61328125 212.10546875 C41.08383232 200.67541707 26.51096661 191.31996606 10.515625 183.71875 C6.93105175 181.96629197 3.46430913 179.97960521 0 178 C0 119.26 0 60.52 0 0 Z " fill="#C9DB0D" transform="translate(809,0)"/>
<path d="M0 0 C23.88281205 21.34018482 36.20886 52.07964425 41.31225586 83.09008789 C41.59262695 84.6949707 41.59262695 84.6949707 41.87866211 86.33227539 C45.93341027 121.4734261 36.6263279 158.5710787 14.52709961 186.45727539 C10.89431848 190.77560781 7.18553543 194.9857706 3.31225586 199.09008789 C2.63936523 199.82743164 1.96647461 200.56477539 1.27319336 201.32446289 C-13.55848026 216.9893766 -33.23676171 227.71289982 -53.68774414 234.09008789 C-55.35256836 234.64116211 -55.35256836 234.64116211 -57.05102539 235.20336914 C-69.14655858 239.11203145 -80.22544535 240.41464683 -92.93774414 240.34008789 C-94.24098633 240.34782227 -95.54422852 240.35555664 -96.88696289 240.36352539 C-138.76720699 240.28051202 -174.32009515 221.51900066 -205.68774414 195.09008789 C-206.6687207 194.28313477 -207.64969727 193.47618164 -208.66040039 192.64477539 C-220.36123694 182.97375084 -231.36471215 172.54738136 -241.96899414 161.69165039 C-243.0603071 160.57983976 -244.15169715 159.4681048 -245.24316406 158.35644531 C-247.39899079 156.15966404 -249.53634642 153.94670353 -251.66552734 151.72412109 C-252.65803027 150.70882421 -253.65108723 149.69406854 -254.64477539 148.67993164 C-255.52109619 147.77106201 -256.39741699 146.86219238 -257.30029297 145.92578125 C-259.46190273 143.87692469 -259.46190273 143.87692469 -261.77734375 144.09375 C-264.0465452 145.27721468 -265.5188416 146.59777672 -267.29711914 148.44165039 C-267.97000977 149.1287207 -268.64290039 149.81579102 -269.33618164 150.52368164 C-270.02969727 151.2468457 -270.72321289 151.97000977 -271.43774414 152.71508789 C-276.07831094 157.50563499 -280.76137525 162.10355539 -285.8215332 166.45092773 C-288.57627884 168.87051986 -291.12928016 171.46645672 -293.68774414 174.09008789 C-298.19063782 178.64216281 -302.79245532 182.95885504 -307.68774414 187.09008789 C-308.59395508 187.88543945 -309.50016602 188.68079102 -310.43383789 189.50024414 C-346.77565249 221.20837551 -391.94819074 243.76210795 -441.20825195 241.28979492 C-455.39779695 240.14691901 -469.32803735 236.93728274 -482.68774414 232.09008789 C-483.70481445 231.73430664 -484.72188477 231.37852539 -485.76977539 231.01196289 C-498.66396974 226.10975245 -510.23714232 217.97610825 -520.68774414 209.09008789 C-521.2459082 208.6530957 -521.80407227 208.21610352 -522.37915039 207.76586914 C-545.55659745 189.55069534 -560.44375686 155.37151687 -563.98095703 126.71459961 C-567.72148129 87.95053892 -561.37491305 51.06768416 -536.28540039 20.18383789 C-528.80859004 11.20826563 -521.05535567 3.16387079 -511.68774414 -3.90991211 C-510.91172852 -4.5015918 -510.13571289 -5.09327148 -509.33618164 -5.70288086 C-486.42727929 -22.44400181 -459.71182462 -32.09848825 -431.31176758 -32.09521484 C-429.22073264 -32.09737798 -427.13024695 -32.11550845 -425.03930664 -32.13452148 C-411.93917043 -32.18921732 -399.22554743 -30.93520685 -386.68774414 -26.90991211 C-385.46055664 -26.53350586 -384.23336914 -26.15709961 -382.96899414 -25.76928711 C-366.41348671 -20.46311105 -350.73102339 -12.1361954 -336.68774414 -1.90991211 C-335.69774414 -1.1919043 -334.70774414 -0.47389648 -333.68774414 0.26586914 C-324.15485936 7.3060991 -315.01626184 14.75823808 -306.26977539 22.75415039 C-304.16169 24.66131388 -302.03263639 26.53436932 -299.88696289 28.39868164 C-295.73759665 32.02241305 -291.69788892 35.75090557 -287.68774414 39.52758789 C-286.6016687 40.54453735 -286.6016687 40.54453735 -285.49365234 41.58203125 C-281.6343122 45.2190948 -277.85556019 48.91117032 -274.16821289 52.72290039 C-273.44698242 53.46483643 -272.72575195 54.20677246 -271.98266602 54.97119141 C-270.59892029 56.4035093 -269.22608244 57.84646225 -267.86547852 59.30078125 C-267.24350586 59.944104 -266.6215332 60.58742676 -265.98071289 61.25024414 C-265.43954834 61.82395752 -264.89838379 62.3976709 -264.34082031 62.98876953 C-262.73260112 64.30704021 -262.73260112 64.30704021 -260.63916016 63.92236328 C-257.50374851 62.5851159 -255.61035071 59.99922532 -253.43774414 57.46508789 C-249.81522416 53.37443238 -246.17593564 49.64102758 -241.98071289 46.12915039 C-238.74506161 43.25179099 -235.73123418 40.16832643 -232.68774414 37.09008789 C-227.84562678 32.20802116 -222.95960337 27.50972927 -217.68774414 23.09008789 C-216.34969727 21.91833008 -216.34969727 21.91833008 -214.98461914 20.72290039 C-190.63902939 -0.49299145 -162.90579331 -18.8001469 -131.68774414 -27.90991211 C-130.74543945 -28.20510742 -129.80313477 -28.50030273 -128.83227539 -28.80444336 C-85.07653399 -41.33253293 -34.15970608 -29.43183242 0 0 Z " fill="#FEFEFE" transform="translate(638.687744140625,259.909912109375)"/>
<path d="M0 0 C15.63053523 13.31846838 25.99100735 32.55755561 27.66552734 53.10644531 C29.06296892 77.88023322 24.37209977 97.66630552 8.41015625 116.97265625 C7.64703125 117.98328125 6.88390625 118.99390625 6.09765625 120.03515625 C-7.26441079 134.64020627 -27.57687053 144.32391981 -47.34765625 145.375 C-86.52931019 146.466848 -116.66293527 125.22270489 -144.15087891 99.35009766 C-147.17998139 96.45050549 -150.1199279 93.46299525 -153.04296875 90.45703125 C-155.09880516 88.45164482 -157.18190006 86.57537259 -159.35546875 84.703125 C-163.80511617 80.8443324 -167.95176107 76.72304918 -172.08984375 72.53515625 C-172.816875 71.80361328 -173.54390625 71.07207031 -174.29296875 70.31835938 C-176.06093874 68.53875801 -177.82650753 66.75684707 -179.58984375 64.97265625 C-173.92346942 53.11208095 -160.63598192 42.23867842 -150.6796875 33.7890625 C-148.1003472 31.54720597 -145.63863254 29.19225694 -143.15234375 26.84765625 C-124.24918464 9.32088151 -100.81489579 -7.5316222 -75.58984375 -14.02734375 C-74.33171875 -14.41921875 -73.07359375 -14.81109375 -71.77734375 -15.21484375 C-47.09906235 -21.50538607 -19.89140201 -15.5710975 0 0 Z " fill="#DA1A7D" transform="translate(594.58984375,300.02734375)"/>
<path d="M0 0 C0.59506348 0.44102051 1.19012695 0.88204102 1.80322266 1.33642578 C9.79516372 7.31906307 17.25665973 13.7765882 24.52001953 20.6171875 C26.47529626 22.44409073 28.46515669 24.23233257 30.44921875 26.02783203 C37.94899671 32.84516798 45.08154794 40.01885115 52.19726562 47.23413086 C53.02033203 48.06565674 53.84339844 48.89718262 54.69140625 49.75390625 C55.42560791 50.49970947 56.15980957 51.2455127 56.91625977 52.01391602 C58.85074549 53.85774043 60.82668887 55.44964955 63 57 C61.69149364 59.88793985 60.29553519 61.95350175 58.05419922 64.1887207 C57.4595285 64.78646805 56.86485779 65.38421539 56.25216675 66.00007629 C55.28816452 66.95330025 55.28816452 66.95330025 54.3046875 67.92578125 C53.63841339 68.59159714 52.97213928 69.25741302 52.28567505 69.94340515 C50.87412939 71.35193182 49.46015619 72.75802933 48.04394531 74.16186523 C45.89858764 76.28911149 43.76119566 78.42410443 41.625 80.56054688 C40.24786382 81.93276149 38.8702736 83.30452063 37.4921875 84.67578125 C36.86166473 85.30519119 36.23114197 85.93460114 35.58151245 86.58308411 C15.03509428 106.91586701 -8.49799823 124.54400148 -35.875 134.375 C-36.54015625 134.61387939 -37.2053125 134.85275879 -37.890625 135.09887695 C-58.76196169 142.22183931 -82.23671024 141.1284913 -102.1875 131.875 C-119.57906939 122.52703146 -131.86260187 109.59419253 -139 91 C-139.38800781 90.01386719 -139.77601563 89.02773438 -140.17578125 88.01171875 C-147.73507366 67.25802504 -147.04946998 44.07929488 -138 24 C-134.29017197 16.17047625 -129.70404893 9.50958255 -124 3 C-123.40703125 2.31164062 -122.8140625 1.62328125 -122.203125 0.9140625 C-88.79866924 -35.20272086 -35.71657642 -26.56203644 0 0 Z " fill="#DA1A7D" transform="translate(277,306)"/>
<path d="M0 0 C1.28003906 1.03640625 1.28003906 1.03640625 2.5859375 2.09375 C15.85880166 13.41355006 23.85783006 28.66627487 26 46 C27.46402025 64.87104679 24.70818785 84.49068381 12.8125 99.8125 C0.68677266 113.57520053 -14.55365905 121.20170344 -32 126 C-32.99 126 -33.98 126 -35 126 C-35 126.66 -35 127.32 -35 128 C-34.02933594 127.95875 -33.05867188 127.9175 -32.05859375 127.875 C-15.87570692 127.9074876 3.06446344 136.35935656 15 147 C15.5878125 147.50789062 16.175625 148.01578125 16.78125 148.5390625 C27.41037818 158.37566796 34.2333414 173.2346985 35.17700195 187.71630859 C35.71598116 213.50571224 35.71598116 213.50571224 31 226 C30.60296875 227.0725 30.2059375 228.145 29.796875 229.25 C28.62374003 232.21996195 27.35704128 235.11000468 26 238 C25.46632813 239.14855469 25.46632813 239.14855469 24.921875 240.3203125 C14.8599299 260.08990885 -4.41344556 272.14804962 -24.890625 279.12890625 C-38.96239624 283.07112357 -52.94608521 285.13517726 -67.5546875 285.203125 C-68.53631866 285.20882507 -69.51794983 285.21452515 -70.52932739 285.22039795 C-72.5983169 285.22978689 -74.66732095 285.23635741 -76.73632812 285.24023438 C-79.83231231 285.24986718 -82.9276105 285.28092 -86.0234375 285.3125 C-111.39550777 285.44785691 -135.12201327 281.2129263 -158 270 C-159 269 -159 269 -159.11352539 265.85717773 C-159.11336633 264.46597303 -159.10767506 263.07476239 -159.09765625 261.68359375 C-159.0962413 260.95253922 -159.09482635 260.22148468 -159.09336853 259.46827698 C-159.08775408 257.12464368 -159.07519922 254.78110461 -159.0625 252.4375 C-159.05748686 250.85221492 -159.05292363 249.26692834 -159.04882812 247.68164062 C-159.03777997 243.7877239 -159.02050572 239.89387795 -159 236 C-154.52649262 237.44777532 -150.08330066 238.9364817 -145.703125 240.6484375 C-134.00727815 245.20896693 -122.30641611 248.53129908 -110 251 C-109.18450684 251.16516113 -108.36901367 251.33032227 -107.52880859 251.50048828 C-80.80632956 256.70714499 -48.86431716 257.0231426 -24.8125 242.625 C-14.18299914 235.16484573 -7.5249244 223.96398452 -4.47265625 211.37109375 C-2.34579248 196.20180915 -2.95230949 181.20824635 -11.5625 168.125 C-15.90721449 162.59974387 -20.7948164 159.20348909 -27 156 C-27.86882812 155.53980469 -28.73765625 155.07960938 -29.6328125 154.60546875 C-44.76136119 147.47220719 -63.18167508 145.97834834 -79.72265625 145.68359375 C-81.20178749 145.6524221 -81.20178749 145.6524221 -82.71080017 145.62062073 C-85.82796985 145.55579082 -88.94521608 145.49655316 -92.0625 145.4375 C-94.1894607 145.39425131 -96.31641397 145.35063511 -98.44335938 145.30664062 C-103.62882936 145.19949446 -108.81436592 145.09992817 -114 145 C-114 134.77 -114 124.54 -114 114 C-111.41671875 113.96261719 -108.8334375 113.92523438 -106.171875 113.88671875 C-63.28192095 113.97094901 -63.28192095 113.97094901 -26.25 94.5625 C-15.06373509 81.82258719 -11.09506393 68.97594473 -11.82080078 52.16845703 C-12.50644176 43.87164069 -15.40628429 36.75560702 -20.828125 30.48828125 C-22 29 -22 29 -22 27 C-22.56203125 26.73058594 -23.1240625 26.46117187 -23.703125 26.18359375 C-26.1404611 24.92761953 -28.42599347 23.51685441 -30.75 22.0625 C-49.25000082 10.94627144 -73.62869221 11.54845955 -94.0859375 16.54296875 C-109.32597551 20.78177722 -123.87574737 28.25049825 -137 37 C-139.71571996 36.82059406 -140.72955119 36.28778263 -142.59985352 34.29760742 C-143.35673462 33.21249878 -143.35673462 33.21249878 -144.12890625 32.10546875 C-144.68900391 31.31462891 -145.24910156 30.52378906 -145.82617188 29.70898438 C-146.39916016 28.87689453 -146.97214844 28.04480469 -147.5625 27.1875 C-148.70958203 25.55595205 -149.85671571 23.92444041 -151.00390625 22.29296875 C-151.50736572 21.5661792 -152.0108252 20.83938965 -152.52954102 20.09057617 C-153.54242989 18.65053509 -154.59824105 17.24005815 -155.68725586 15.85668945 C-157 14 -157 14 -157 12 C-155.05066094 10.53876802 -153.12214726 9.22832614 -151.0625 7.9375 C-150.12120239 7.34412842 -150.12120239 7.34412842 -149.16088867 6.73876953 C-108.87440604 -18.27277204 -40.58192561 -33.1170229 0 0 Z " fill="#FEFEFD" transform="translate(1408,247)"/>
<path d="M0 0 C65.67 0 131.34 0 199 0 C199 40.48703736 199 40.48703736 188.73632812 59.64111328 C185.995335 64.94350127 183.69079726 70.42334821 181.36679077 75.91680908 C180.02328717 79.08340959 178.65237301 82.23811631 177.28515625 85.39453125 C176.73700318 86.6635143 176.18898887 87.93255729 175.64111328 89.20166016 C173.20410123 94.84396141 170.75887915 100.48270465 168.3142395 106.1217041 C166.94615574 109.27761353 165.57855809 112.43373359 164.2109375 115.58984375 C163.94074295 116.21335724 163.6705484 116.83687073 163.39216614 117.47927856 C161.62826157 121.54982757 159.86481019 125.62057267 158.1015625 129.69140625 C148.61042686 151.60192834 139.10299204 173.50537478 129.59619141 195.40910339 C126.06311496 203.54964025 122.53127685 211.6907136 119 219.83203125 C114.6867485 229.77606284 110.37172786 239.7193245 106.05444336 249.66160583 C103.82165271 254.80354943 101.5895565 259.94579133 99.359375 265.08886719 C97.32433428 269.78177265 95.28707584 274.47370856 93.24798584 279.16485596 C92.50549528 280.87408949 91.76382263 282.58367858 91.02301025 284.29364014 C90.02012797 286.60817459 89.01436575 288.92143516 88.0078125 291.234375 C87.71422852 291.91382172 87.42064453 292.59326843 87.11816406 293.29330444 C85.11415919 297.88584081 85.11415919 297.88584081 84 299 C82.52645652 299.09304018 81.04849409 299.11746265 79.57202148 299.11352539 C78.63112167 299.11344986 77.69022186 299.11337433 76.72080994 299.11329651 C75.69790359 299.10813522 74.67499725 299.10297394 73.62109375 299.09765625 C72.058395 299.09553383 72.058395 299.09553383 70.46412659 299.09336853 C67.12188906 299.0877508 63.77971743 299.0751953 60.4375 299.0625 C58.17773534 299.05748728 55.91796963 299.05292398 53.65820312 299.04882812 C48.10544609 299.03777561 42.55272775 299.02102024 37 299 C38.44152398 294.41433345 40.22869324 290.05577267 42.2109375 285.68359375 C42.69059715 284.61584969 42.69059715 284.61584969 43.1799469 283.52653503 C43.87579774 281.97825419 44.57293419 280.43055064 45.27120972 278.88336182 C47.19573041 274.61886362 49.11074911 270.35009595 51.02734375 266.08203125 C51.43197342 265.18168152 51.83660309 264.28133179 52.25349426 263.35369873 C56.42429823 254.06821219 60.55306022 244.76419742 64.68023682 235.45925903 C71.77372839 219.46834096 78.91172069 203.49843691 86.10421753 187.55181885 C92.54343028 173.27249118 98.91425951 158.96350416 105.26647949 144.64529419 C111.58652608 130.40199206 117.95453201 116.18115031 124.35992432 101.9760437 C131.75471897 85.57469484 139.07194784 69.13943675 146.36279297 52.69165039 C148.23946752 48.46003753 150.11994934 44.23011398 152 40 C101.84 40 51.68 40 0 40 C0 26.8 0 13.6 0 0 Z " fill="#FDFEFE" transform="translate(329,1016)"/>
<path d="M0 0 C28.05 0 56.1 0 85 0 C85 99 85 198 85 300 C69.49 300 53.98 300 38 300 C38 214.86 38 129.72 38 42 C25.46 42 12.92 42 0 42 C0 28.14 0 14.28 0 0 Z " fill="#FFFFFF" transform="translate(187,1015)"/>
<path d="M0 0 C0 10.56 0 21.12 0 32 C-3.795 33.753125 -7.59 35.50625 -11.5 37.3125 C-23.49088293 42.86932112 -35.44053048 48.51063637 -47.375 54.1875 C-48.21887268 54.58890198 -49.06274536 54.99030396 -49.93218994 55.40386963 C-53.38313481 57.0455765 -56.83396356 58.68752711 -60.28463745 60.32980347 C-81.68888782 70.51561519 -103.11629179 80.65284499 -124.5625 90.75 C-125.25647888 91.07688812 -125.95045776 91.40377625 -126.66546631 91.74057007 C-130.50055666 93.54666012 -134.33754825 95.34859826 -138.17706299 97.14526367 C-140.04525746 98.02122026 -141.91103739 98.90219794 -143.77685547 99.78320312 C-144.9526416 100.33427734 -146.12842773 100.88535156 -147.33984375 101.453125 C-148.90593384 102.19030762 -148.90593384 102.19030762 -150.50366211 102.94238281 C-153 104 -153 104 -155 104 C-155 104.66 -155 105.32 -155 106 C-154.48622803 106.12882568 -153.97245605 106.25765137 -153.44311523 106.39038086 C-145.18529763 108.65561544 -137.45567761 112.07291577 -129.61312866 115.46090698 C-125.16101876 117.38373223 -120.7009064 119.28787579 -116.2421875 121.1953125 C-115.31546738 121.59235886 -114.38874725 121.98940521 -113.4339447 122.39848328 C-103.54156568 126.63347365 -93.61684662 130.79009504 -83.6875 134.9375 C-81.90436331 135.68282558 -80.12124162 136.42818702 -78.33813477 137.17358398 C-74.73521622 138.67949206 -71.13207577 140.18486773 -67.52880859 141.68994141 C-58.94131298 145.27735055 -50.35649201 148.87115182 -41.77163696 152.46487427 C-39.10527512 153.58093493 -36.43876256 154.69663473 -33.7722168 155.81225586 C-22.50815981 160.52578854 -11.2522291 165.25829361 0 170 C0 180.56 0 191.12 0 202 C-3.48184282 201.30363144 -5.77683895 200.80708656 -8.86425781 199.42797852 C-9.59407867 199.10503815 -10.32389954 198.78209778 -11.07583618 198.44937134 C-12.25259415 197.91949112 -12.25259415 197.91949112 -13.453125 197.37890625 C-14.70613907 196.82219742 -14.70613907 196.82219742 -15.98446655 196.25424194 C-17.79298505 195.45003383 -19.60047439 194.64350821 -21.40704346 193.83493042 C-24.29331587 192.54311299 -27.18214565 191.25718448 -30.07177734 189.97290039 C-33.07254069 188.63918152 -36.07315144 187.30513235 -39.07296753 185.96928406 C-48.07133132 181.96265469 -57.08648872 177.99502186 -66.10797119 174.04077148 C-68.64629742 172.92816485 -71.18427996 171.8147777 -73.72216797 170.70117188 C-78.81450067 168.46681391 -83.90721304 166.23332234 -89 164 C-95.79197602 161.02153813 -102.58368688 158.04247309 -109.375 155.0625 C-110.21093689 154.69576172 -111.04687378 154.32902344 -111.90814209 153.95117188 C-121.74449468 149.6351898 -131.57546127 145.30728459 -141.3984375 140.9609375 C-142.82589798 140.32946053 -142.82589798 140.32946053 -144.28219604 139.68522644 C-148.83917466 137.66902081 -153.39549495 135.6513499 -157.95068359 133.63110352 C-159.62845832 132.88790719 -161.30635374 132.14498327 -162.984375 131.40234375 C-164.19904953 130.8647216 -164.19904953 130.8647216 -165.43826294 130.3162384 C-172.75547346 127.0879826 -180.10830452 123.94417137 -187.47601318 120.83299255 C-188.31569641 120.47633011 -189.15537964 120.11966766 -190.02050781 119.75219727 C-190.76617004 119.43726822 -191.51183228 119.12233917 -192.28009033 118.79786682 C-194 118 -194 118 -195 117 C-195.08685603 115.43827255 -195.10702219 113.87270656 -195.09765625 112.30859375 C-195.09443359 111.36435547 -195.09121094 110.42011719 -195.08789062 109.44726562 C-195.07951172 108.45404297 -195.07113281 107.46082031 -195.0625 106.4375 C-195.05798828 105.44041016 -195.05347656 104.44332031 -195.04882812 103.41601562 C-195.03700007 100.94395151 -195.02051849 98.47200482 -195 96 C-170.57541331 83.7760326 -146.14968537 71.55434839 -121.72259235 59.33539009 C-110.38100522 53.66201708 -99.03979441 47.98789419 -87.69946289 42.31201172 C-77.81660318 37.36560224 -67.93304397 32.42059378 -58.04863805 27.47727478 C-52.81373717 24.85917185 -47.57919211 22.24036304 -42.34548378 19.61987686 C-37.4208557 17.15417294 -32.49529554 14.6903413 -27.56900978 12.22795105 C-25.75985652 11.3232367 -23.95104677 10.41783506 -22.14260483 9.51169968 C-19.67548269 8.27565475 -17.20714203 7.0420776 -14.73847961 5.80911255 C-14.02154554 5.44918909 -13.30461147 5.08926564 -12.56595212 4.71843541 C-3.10073481 0 -3.10073481 0 0 0 Z " fill="#FEFEFC" transform="translate(1210,278)"/>
<path d="M0 0 C4.02519146 1.29885774 7.92673987 2.74937865 11.82421875 4.390625 C39.26584457 15.84003285 67.13037263 24.87611118 97 27 C98.084021 27.08467529 99.16804199 27.16935059 100.28491211 27.2565918 C109.54858312 27.93930584 118.77518411 28.20339154 128.0625 28.1875 C128.77955109 28.18656342 129.49660217 28.18562683 130.23538208 28.18466187 C170.50931179 28.0714749 207.09699256 18.27691572 244.16113281 3.10986328 C247.078499 1.96931059 250.02067015 0.96571762 253 0 C254.54187975 3.72080753 256.0547139 7.45276087 257.5625 11.1875 C258.00013672 12.24259766 258.43777344 13.29769531 258.88867188 14.38476562 C259.29794922 15.40634766 259.70722656 16.42792969 260.12890625 17.48046875 C260.51119385 18.41785889 260.89348145 19.35524902 261.28735352 20.32104492 C262.10387519 23.39048389 262.0827907 25.02107812 261 28 C259.39624023 29.54223633 259.39624023 29.54223633 257.30859375 30.83203125 C256.15073364 31.5588208 256.15073364 31.5588208 254.96948242 32.30029297 C254.13392822 32.79932129 253.29837402 33.29834961 252.4375 33.8125 C251.1522644 34.59971436 251.1522644 34.59971436 249.84106445 35.40283203 C242.11209183 40.07097413 234.20136628 44.23133395 226 48 C224.31583984 48.77923828 224.31583984 48.77923828 222.59765625 49.57421875 C219.09525844 51.13129409 215.56389109 52.59152148 212 54 C211.31083496 54.2769873 210.62166992 54.55397461 209.91162109 54.83935547 C183.64463675 65.23368408 155.37992017 69.43985548 127.25 69.375 C126.35636749 69.37445618 125.46273499 69.37391235 124.54202271 69.37335205 C86.78411041 69.2683301 50.31273438 61.00643158 17 43 C16.31534668 42.63229492 15.63069336 42.26458984 14.92529297 41.88574219 C6.59989846 37.38791659 -1.40637073 32.67696804 -9 27 C-8.45371735 20.67872937 -6.36700755 15.39080049 -3.9375 9.5625 C-3.56044922 8.64017578 -3.18339844 7.71785156 -2.79492188 6.76757812 C-1.87031 4.5087162 -0.93855136 2.2530973 0 0 Z " fill="#FDFDFD" transform="translate(1062,1287)"/>
<path d="M0 0 C9.24 0 18.48 0 28 0 C28 19.14 28 38.28 28 58 C47.47 58 66.94 58 87 58 C87 66.91 87 75.82 87 85 C67.53 85 48.06 85 28 85 C28 104.8 28 124.6 28 145 C18.76 145 9.52 145 0 145 C0 125.2 0 105.4 0 85 C-19.47 85 -38.94 85 -59 85 C-59 76.09 -59 67.18 -59 58 C-39.53 58 -20.06 58 0 58 C0 38.86 0 19.72 0 0 Z " fill="#FBFBFC" transform="translate(1079,1090)"/>
<path d="M0 0 C8.91 0 17.82 0 27 0 C27 19.14 27 38.28 27 58 C46.47 58 65.94 58 86 58 C86 66.91 86 75.82 86 85 C66.53 85 47.06 85 27 85 C27 104.8 27 124.6 27 145 C18.09 145 9.18 145 0 145 C0 125.2 0 105.4 0 85 C-19.47 85 -38.94 85 -59 85 C-59 76.09 -59 67.18 -59 58 C-39.53 58 -20.06 58 0 58 C0 38.86 0 19.72 0 0 Z " fill="#FEFEFE" transform="translate(1258,1090)"/>
</svg>
